<?xml version="1.0" encoding="UTF-8"?>
<svg id="Layer_10" data-name="Layer 10" xmlns="http://www.w3.org/2000/svg" viewBox="0 0 400.5 400.5">
  <defs>
    <style>
      .cls-1 {
        fill: #464444;
      }
    </style>
  </defs>
  <g id="_11_Illustrator_Adobe_Ai" data-name="11, Illustrator, Adobe, Ai">
    <g>
      <path class="cls-1" d="M.11,.25V400.25H400.11V.25H.11ZM239.78,285.82h-28.75c-1.3,0-1.82-.94-2.34-2.15l-16.64-53.52h-59.51l-15.86,52.91c-.26,1.81-1.04,2.76-2.6,2.76h-26.16c-1.81,0-2.32-.94-1.81-3.04,13.97-46.02,37.51-122.71,54.06-174.74,.78-3.01,1.55-5.89,2.07-16.42,0-1.2,.78-1.68,1.55-1.68h35.7c1.29,0,1.55,.15,2.07,1.35,19.14,61.65,40.09,129.6,59.75,191.85,.52,1.8,0,2.67-1.55,2.67Zm60.33-2.54c0,1.52-.52,2.54-2.07,2.54h-26.86c-1.55,0-2-.72-2-2.84V141.24c0-1.81,.19-2.85,1.48-2.85h27.38c1.55,0,2.07,.74,2.07,2.85v142.04Zm-15.32-164.19c-10.19,0-17.06-7.23-17.06-18.68s7.38-18.68,17.31-18.68c10.44,0,16.81,7.53,16.81,18.68,0,11.45-6.88,18.68-17.06,18.68Z"/>
      <path class="cls-1" d="M161.66,118.81c-3.91,19.64-14.58,54.2-22.39,82.47h45.82c-5.21-20.42-17.97-61.27-23.17-82.47h-.26Z"/>
    </g>
  </g>
</svg>