<?xml version="1.0" encoding="UTF-8"?>
<svg id="Layer_13" data-name="Layer 13" xmlns="http://www.w3.org/2000/svg" viewBox="0 0 400.5 400.5">
  <defs>
    <style>
      .cls-1 {
        fill: #464444;
      }
    </style>
  </defs>
  <path class="cls-1" d="M270,154.36h-126.02c-42.28-1.65-75.22-37.26-73.57-79.54C71.97,34.85,104.01,2.81,143.98,1.25h126.02c42.28,1.65,75.22,37.26,73.57,79.54-1.56,39.97-33.6,72.01-73.57,73.57ZM143.95,30.82c-26.24,1.3-46.46,23.63-45.17,49.87,1.21,24.43,20.74,43.96,45.17,45.17h126.09c26.24-1.3,46.46-23.63,45.17-49.87-1.21-24.43-20.74-43.96-45.17-45.17h-126.09Z"/>
  <path class="cls-1" d="M217.4,275.91H114.65c-3.8,0-7.44-1.48-10.2-4.1-71.15-67.59-20.56-151.16,46.79-145.73,.65,.05,1.27,.32,1.73,.77,12.72,12.4,4.14,27.48-7.96,27.48-39.79,0-67.91,49.94-25.1,90.56,1.7,1.61,3.96,2.5,6.29,2.5h65.45v-113.06c0-.71,.26-1.4,.74-1.92,12.45-13.15,27.77-4.53,27.77,7.67v133.06c0,1.52-1.24,2.76-2.76,2.76Z"/>
  <path class="cls-1" d="M146.18,397.39c-41.47,1.62-76.41-30.69-78.02-72.17-1.62-41.47,30.69-76.41,72.17-78.02,1.95-.08,3.9-.08,5.85,0,7.87,0,14.26,6.38,14.26,14.26s-6.38,14.26-14.26,14.26c-26.36-.06-47.67,21.76-46.73,48.35,.86,24.18,20.51,43.92,44.68,44.9,26.59,1.07,48.51-20.13,48.57-46.49,0-.04,0-.08,0-.11v-60.45c0-7.7,5.92-14.35,13.61-14.69,8.17-.36,14.9,6.15,14.9,14.24v60.9c-.06,41.42-33.62,74.98-75.04,75.04Z"/>
  <path class="cls-1" d="M268.78,279.9c-42.7,0-77.32-34.62-77.32-77.32s34.62-77.32,77.32-77.32,77.32,34.62,77.32,77.32-34.62,77.32-77.32,77.32h0Zm.2-125.54c-27.32,0-49.35,22.67-48.3,50.22,.95,25.05,21.37,45.47,46.42,46.42,27.55,1.05,50.22-20.98,50.22-48.3,0-.04,0-.08,0-.12-.06-26.65-21.69-48.22-48.34-48.22Z"/>
  <path class="cls-1" d="M205.97,154.08h0c-7.97-.06-14.38-6.58-14.32-14.55h0s.92-123.23,.92-123.23c.06-7.88,6.44-14.26,14.32-14.32h0c7.97,.06,14.38,6.58,14.32,14.55h0s-.92,123.23-.92,123.23c-.12,7.86-6.46,14.2-14.32,14.32Z"/>
</svg>