<?xml version="1.0" encoding="UTF-8"?>
<svg id="Layer_15" data-name="Layer 15" xmlns="http://www.w3.org/2000/svg" viewBox="0 0 400.5 400.5">
  <defs>
    <style>
      .cls-1 {
        fill: #464444;
      }
    </style>
  </defs>
  <path class="cls-1" d="M392.03,183.06L217.72,8.78c-10.03-10.04-26.31-10.04-36.34,0,0,0,0,0,0,0l-36.18,36.18,45.91,45.91c15.95-5.45,33.29,3.07,38.74,19.02,2.2,6.46,2.18,13.46-.06,19.9l44.24,44.26c15.91-5.6,33.35,2.75,38.95,18.66,3.92,11.15,1.07,23.55-7.34,31.86-11.91,11.98-31.28,12.04-43.26,.13-8.8-8.75-11.45-21.95-6.69-33.42l-41.24-41.27v108.61c16.18,8.01,22.15,28.41,12.11,44.04-7.63,11.9-22.74,17-36.02,12.17-17.46-6.35-25.08-26.19-17.08-42.37,3.31-6.68,8.94-11.92,15.83-14.74v-109.61c-15.63-6.41-23.11-24.27-16.71-39.9,.03-.07,.06-.14,.09-.22l-45.24-45.26L7.91,182.26c-10.04,10.03-10.04,26.31,0,36.34,0,0,0,0,0,0l174.3,174.3c10.03,10.04,26.31,10.04,36.34,0h0s173.48-173.49,173.48-173.49c10.03-10.04,10.03-26.31,0-36.35"/>
</svg>