<?xml version="1.0" encoding="UTF-8"?>
<svg id="Layer_14" data-name="Layer 14" xmlns="http://www.w3.org/2000/svg" viewBox="0 0 400.5 400.5">
  <defs>
    <style>
      .cls-1 {
        fill: #464444;
      }
    </style>
  </defs>
  <path class="cls-1" d="M.11,.25V400.25H400.11V.25H.11ZM214.92,310.55c0,38.97-22.92,57.97-56.11,57.97-29.97,0-47.37-15.59-56.19-34.4h0l30.5-18.54c5.88,10.48,10.35,19.35,23.19,19.35,10.68,0,19.45-4.83,19.45-23.65v-125.85h39.15v125.12Zm88.46,57.19c-34.93,0-57.51-15.76-68.53-37.54h0l30.68-17.76c8.04,13.17,18.54,21.95,37.09,21.95,15.59,0,24.64-6.9,24.64-17.65,0-12.9-9.32-17.46-26.52-25.02l-9.4-4.04c-27.15-11.55-45.15-26.06-45.15-56.7,0-28.21,21.49-48.82,55.09-48.82,23.92,0,41.11,7.44,53.49,29.21l-29.35,18.87c-6.45-11.56-13.41-16.09-24.18-16.09s-18.01,6.99-18.01,16.09c0,11.29,6.99,15.85,23.11,22.84l9.4,4.03c31.99,13.71,49.99,27.7,49.99,59.13,0,33.87-26.6,51.51-62.34,51.51Z"/>
</svg>