<?xml version="1.0" encoding="UTF-8"?>
<svg id="Layer_8" data-name="Layer 8" xmlns="http://www.w3.org/2000/svg" viewBox="0 0 400.5 400.5">
  <defs>
    <style>
      .cls-1 {
        fill: #464444;
      }
    </style>
  </defs>
  <g id="Layer_3" data-name="Layer 3">
    <g>
      <path class="cls-1" d="M.11,400.25H400.11V.25H.11V400.25ZM268.74,234.18c-30.91-10.41-43.6-27.33-43.6-46.2,0-27.98,23.1-49.46,59.87-49.46,17.57,0,32.86,4.23,42.3,9.44l-8.14,27.98c-6.51-3.9-19.52-9.11-33.51-9.11s-22.13,7.16-22.13,16.92,7.48,14.64,27.66,22.13c28.96,10.09,41.97,24.73,42.3,48.16,0,28.96-22.45,48.15-64.42,48.15-19.2,0-36.44-4.56-48.15-11.06l8.13-29.28c8.79,5.53,26.03,11.71,40.35,11.71,17.57,0,25.38-5.85,25.38-16.26,0-10.74-6.51-15.94-26.03-23.1ZM61.16,86.8c14.75-2.6,34.75-4.56,61.64-4.56,29.51,0,50.82,6.18,64.92,17.9,13.11,10.74,21.64,27.98,21.64,48.48s-6.56,37.74-18.69,49.46c-16.39,15.94-41.31,23.75-69.84,23.75-7.54,0-14.1-.33-19.67-1.63v82.15H61.16V86.8Z"/>
      <path class="cls-1" d="M168.84,150.07c0-24.4-16.92-37.09-44.58-37.09-11.06,0-18.87,.98-23.1,1.95v73.53c5.21,1.63,11.39,1.95,19.52,1.95,29.93,0,48.16-14.97,48.16-40.35Z"/>
    </g>
  </g>
</svg>