<?xml version="1.0" encoding="UTF-8"?>
<svg id="Layer_12" data-name="Layer 12" xmlns="http://www.w3.org/2000/svg" viewBox="0 0 400.5 400.5">
  <defs>
    <style>
      .cls-1 {
        fill: #464444;
      }
    </style>
  </defs>
  <path class="cls-1" d="M200.04,164.21c-19.64,0-35.57,15.92-35.57,35.57s15.92,35.57,35.57,35.57,35.57-15.92,35.57-35.57-15.92-35.57-35.57-35.57Zm-99.63,106.32l-7.85-2C34.06,253.75,.51,228.66,.51,199.71s33.56-54.04,92.05-68.82l7.85-1.98,2.21,7.78c5.93,20.41,13.51,40.31,22.66,59.49l1.68,3.54-1.68,3.54c-9.17,19.18-16.75,39.08-22.66,59.49,0,0-2.21,7.77-2.21,7.77Zm-11.49-121.47c-44.46,12.49-71.75,31.59-71.75,50.65s27.29,38.14,71.75,50.65c5.44-17.29,12-34.21,19.65-50.65-7.66-16.43-14.23-33.35-19.65-50.65Zm210.76,121.47l-2.21-7.8c-5.92-20.41-13.51-40.31-22.68-59.48l-1.68-3.54,1.68-3.54c9.17-19.18,16.76-39.08,22.68-59.49l2.21-7.78,7.86,1.98c58.48,14.78,92.04,39.87,92.04,68.84s-33.56,54.04-92.04,68.82l-7.86,2Zm-8.16-70.82c7.98,17.28,14.58,34.25,19.65,50.65,44.48-12.5,71.75-31.61,71.75-50.65s-27.29-38.14-71.75-50.65c-5.43,17.3-12,34.22-19.65,50.65Zm-202.71-50.73l-2.21-7.77c-16.44-57.96-11.46-99.5,13.68-114,24.66-14.23,64.25,2.58,105.74,45.16l5.65,5.8-5.65,5.8c-14.74,15.32-28.21,31.82-40.27,49.33l-2.24,3.21-3.91,.33c-21.22,1.67-42.27,5.06-62.94,10.14,0,0-7.85,1.98-7.85,1.98Zm31.53-110.24c-4.46,0-8.4,.96-11.72,2.88-16.53,9.53-19.45,42.65-8.06,87.35,17.72-3.94,35.68-6.72,53.76-8.33,10.43-14.83,21.83-28.97,34.12-42.3-25.94-25.26-50.5-39.59-68.09-39.59Zm159.44,338.52s-.02,0,0,0c-23.69,0-54.12-17.84-85.7-50.27l-5.65-5.8,5.65-5.8c14.74-15.33,28.2-31.83,40.26-49.35l2.24-3.21,3.89-.33c21.23-1.66,42.29-5.05,62.97-10.13l7.85-1.98,2.23,7.78c16.41,57.93,11.44,99.48-13.7,113.97-6.11,3.45-13.02,5.22-20.04,5.12Zm-68.11-55.95c25.94,25.26,50.5,39.59,68.09,39.59h.02c4.44,0,8.4-.96,11.71-2.88,16.53-9.53,19.47-42.67,8.06-87.36-17.72,3.95-35.69,6.73-53.77,8.33-10.42,14.84-21.81,28.98-34.1,42.32Zm99.62-172.33l-7.85-1.98c-20.68-5.09-41.74-8.49-62.97-10.14l-3.89-.33-2.24-3.21c-12.05-17.52-25.51-34.02-40.26-49.33l-5.65-5.8,5.65-5.8c41.47-42.57,81.04-59.38,105.74-45.16,25.14,14.5,30.13,56.04,13.7,113.98,0,0-2.23,7.78-2.23,7.78Zm-65.51-28.35c18.99,1.73,37.03,4.54,53.77,8.33,11.41-44.7,8.46-77.82-8.06-87.35-16.43-9.49-47.31,5.05-79.81,36.71,12.28,13.34,23.68,27.47,34.1,42.3ZM120.33,377.31c-7.02,.1-13.94-1.67-20.05-5.12-25.14-14.48-30.13-56.02-13.68-113.97l2.19-7.78,7.85,1.98c19.21,4.84,40.39,8.25,62.94,10.13l3.91,.33,2.23,3.21c12.06,17.51,25.53,34.02,40.27,49.35l5.65,5.8-5.65,5.8c-31.56,32.42-61.99,50.27-85.65,50.27Zm-19.79-106.87c-11.41,44.7-8.46,77.84,8.06,87.36,16.41,9.36,47.27-5.07,79.81-36.71-12.28-13.35-23.68-27.48-34.12-42.32-18.08-1.6-36.04-4.38-53.76-8.33Zm99.5,10.44c-13.68,0-27.75-.6-41.84-1.76l-3.91-.33-2.24-3.21c-7.97-11.45-15.46-23.22-22.45-35.28-6.97-12.08-13.44-24.44-19.39-37.05l-1.66-3.54,1.66-3.54c5.95-12.61,12.42-24.97,19.39-37.05,6.88-11.91,14.45-23.78,22.45-35.28l2.24-3.21,3.91-.33c27.85-2.36,55.84-2.36,83.69,0l3.89,.33,2.23,3.21c15.95,22.9,29.95,47.09,41.85,72.33l1.68,3.54-1.68,3.54c-11.88,25.25-25.88,49.45-41.85,72.33l-2.23,3.21-3.89,.33c-14.08,1.16-28.17,1.76-41.85,1.76Zm-36.53-18.02c24.61,1.85,48.45,1.85,73.08,0,13.75-20.1,25.95-41.21,36.51-63.15-10.54-21.96-22.75-43.07-36.53-63.15-24.32-1.85-48.74-1.85-73.06,0-13.78,20.08-26,41.19-36.53,63.15,10.57,21.94,22.78,43.05,36.53,63.15Z"/>
</svg>