<?xml version="1.0" encoding="UTF-8"?>
<svg id="Layer_11" data-name="Layer 11" xmlns="http://www.w3.org/2000/svg" viewBox="0 0 400.5 400.5">
  <defs>
    <style>
      .cls-1 {
        fill: #464444;
      }
    </style>
  </defs>
  <path class="cls-1" d="M277.41,279.87c14.46-1.32,25.67-14.76,24.94-30.82-.77-16.06-13.23-28.96-28.41-28.96h-1.01c-15.69,.54-27.91,14.48-27.42,31.08,.5,8.42,3.76,15.27,8.22,20.26-17.43,35.81-43.6,62.13-83.24,84.25-26.67,14.72-54.83,20.28-82.25,16.32-22.92-3.41-40.86-14.23-51.84-31.59-16.44-26.34-17.93-54.75-4.24-83.18,10-20.54,24.94-35.54,34.92-42.92-2.5-6.83-5.49-18.41-6.99-27.09C-13.71,243.04-6.2,319.37,16.22,355.44c16.7,26.32,50.85,43.15,88.23,43.15,9.96,0,20.44-.77,30.66-3.41,64.81-13.16,113.9-54.22,142.07-114.77l.23-.54Zm89.07-66.58c-38.68-48-95.62-74.36-160.55-74.36h-8.49c-4.15-9.59-13.72-15.57-24.54-15.57h-.86c-15.76,0-28.05,14.3-27.53,30.95,.5,15.85,13.27,29.1,28.55,29.1h.84c11.52-.54,21.48-8.11,25.56-18.9h8.74c38.48,0,74.91,11.86,108.12,35.06,25.45,17.67,43.69,40.87,53.93,68.57,8.97,22.67,8.48,44.83-.75,63.31-14.23,28.99-38.21,44.3-69.91,44.3-19.98,0-39.44-6.6-49.44-11.34-5.98,5.25-15.98,13.96-23.23,19.24,21.96,10.53,44.19,16.6,65.66,16.6,48.69,0,84.87-28.99,98.62-56.96,14.96-31.65,13.73-84.91-24.48-130.53,0,0-.23,.53-.23,.53ZM108.63,288.97c.48,15.81,13.2,28.98,28.43,28.98h1c15.96-.53,28.18-14.47,27.43-31.09,0-15.81-12.97-28.96-28.18-28.96h-1.02c-1,0-2.48,0-3.75,.51-20.69-36.89-29.43-76.41-26.17-119.05,1.98-32.14,11.97-60.08,29.91-83.25,14.97-19.76,43.15-29.52,62.36-30.03,53.87-1.07,76.33,69.82,78.06,98l24.94,7.89C295.91,45.58,245.05,.25,196.41,.25,150.76,.25,108.63,35.29,91.65,86.67c-23.19,68.5-7.97,134.35,20.46,187.04-2.48,3.43-3.98,9.48-3.48,15.26Z"/>
</svg>