<?xml version="1.0" encoding="UTF-8"?>
<svg xmlns="http://www.w3.org/2000/svg" viewBox="0 0 400.86 427">
  <defs>
    <style>
      .cls-1 {
        fill: #ed7a69;
      }

      .cls-2 {
        fill: #fff;
      }

      .cls-3 {
        fill: #df5a33;
      }

      .cls-4 {
        fill: #9661f5;
      }

      .cls-5 {
        fill: #56b9f7;
      }

      .cls-6 {
        fill: #5eca88;
      }
    </style>
  </defs>
  <g id="Layer_24" data-name="Layer 24">
    <path class="cls-2" d="m207.6,222.74l-111.49,40.26s-43,35-25.14,93.11,78.58,48.9,92.14,45.89c18-4,52.47-15.68,59-63l5-64s30,25,79,5c39.03-15.93,45-61,39-89-7.73-36.06-35-49-35-49l-110-4,1,82.28"/>
  </g>
  <g id="Layer_19" data-name="Layer 19">
    <path class="cls-3" d="m206.9,6.73l-62.92-.73s-74.87,1-74.87,75c0,48,32.44,63.01,33,63l104.33.37.46-137.65Z"/>
    <path class="cls-1" d="m206.03,6.54l62.92-.73s74.87,1,74.87,75c0,48-32.44,63.01-33,63l-104.33.37-.46-137.65Z"/>
    <path class="cls-4" d="m206.8,280.28l-62.92.72s-74.87-.99-74.87-74.42c0-47.63,32.44-62.52,33-62.52l104.33-.37.46,136.59Z"/>
    <path class="cls-6" d="m190.11,270.38s-70.91-3.5-94,10.83c-32,19.85-38.96,61.66-15.76,92.65,23.2,31,52.4,27.6,58.69,29.3s59.94-6.01,67.64-61.87l.43-70.92h-17Z"/>
    <circle class="cls-5" cx="274.61" cy="212.5" r="68.5"/>
  </g>
</svg>