<?xml version="1.0" encoding="UTF-8"?>
<svg id="Layer_19" data-name="Layer 19" xmlns="http://www.w3.org/2000/svg" viewBox="0 0 400.5 400.5">
  <defs>
    <style>
      .cls-1 {
        fill: #ed7a69;
      }

      .cls-2 {
        fill: #df5a33;
      }

      .cls-3 {
        fill: #9661f5;
      }

      .cls-4 {
        fill: #56b9f7;
      }

      .cls-5 {
        fill: #5eca88;
      }
    </style>
  </defs>
  <path id="path0_fill" data-name="path0 fill" class="cls-5" d="M209.9,332.48v-65.83h-65.83c-36.13,0-66.46,28.31-67.72,64.41-1.35,38.76,30.39,70.5,69.14,69.14,36.11-1.26,64.41-31.59,64.41-67.72Z"/>
  <path id="path1_fill" data-name="path1 fill" class="cls-3" d="M144.4,133.45h65.5v133.2h-66.6c-36.33,0-65.89-29.13-66.59-65.29-.72-37.46,30.22-67.91,67.69-67.91Z"/>
  <path id="path1_fill-2" data-name="path1 fill" class="cls-2" d="M144.4,.25h65.5V133.45h-66.6c-36.33,0-65.89-29.13-66.59-65.29C75.99,30.69,106.93,.25,144.4,.25Z"/>
  <path id="path2_fill" data-name="path2 fill" class="cls-1" d="M209.9,.25h65.5c37.47,0,68.41,30.44,67.69,67.91-.7,36.16-30.26,65.29-66.59,65.29h-66.6V.25Z"/>
  <path id="path3_fill" data-name="path3 fill" class="cls-4" d="M343.88,199.96c0,36.87-29.93,66.8-66.8,66.8s-66.8-29.93-66.8-66.8,29.93-66.8,66.8-66.8,66.8,29.93,66.8,66.8Z"/>
</svg>