<?xml version="1.0" encoding="UTF-8"?>
<svg id="Layer_16" data-name="Layer 16" xmlns="http://www.w3.org/2000/svg" viewBox="0 0 400.5 400.5">
  <defs>
    <style>
      .cls-1 {
        fill: #75ae4a;
      }
    </style>
  </defs>
  <path class="cls-1" d="M200.54,400.25c-5.32,0-10.72-1.43-15.4-4.13l-48.98-28.98c-7.3-4.13-3.73-5.56-1.35-6.35,9.76-3.41,11.75-4.13,22.15-10.08,1.11-.64,2.54-.4,3.65,.32l37.63,22.31c1.35,.79,3.25,.79,4.53,0l146.63-84.63c1.35-.79,2.76-3.97,2.76-3.97V115.65c0-1.67-.88-3.19-2.31-4.06L202.73,26.72c-1.35-.8-3.19-.8-4.54,0L51.16,111.67c-1.43,.8-2.31,2.39-2.31,4.06v169.34c0,1.59,.88,3.18,2.31,3.89l40.35,23.18c21.93,10.88,35.33-1.91,35.33-14.85V130.27c0-2.32,1.88-4.21,4.21-4.21h18.62c2.28,0,4.25,1.83,4.25,4.21v167.11c0,29.06-15.76,45.73-43.09,45.73-8.43,0-15.05,0-33.48-9.21l-38.13-22.15c-9.45-5.48-15.28-15.72-15.28-26.75V115.4c0-10.94,5.87-21.25,15.38-26.72L185.58,4.17c9.28-5.23,21.56-5.23,30.76,0l146.43,84.59c9.51,5.47,15.38,15.7,15.38,26.72v169.26s-6.05,21.2-15.58,26.75l-146.63,84.63c-4.68,2.7-10,4.13-15.4,4.13Zm117.55-167.69c0-31.33-21.2-39.65-65.72-45.54-45.07-5.97-49.63-9.03-49.63-19.55,0-8.72,3.85-20.34,37.22-20.34,29.76,0,40.75,6.44,45.31,26.54,.39,1.88,2.12,3.3,4.08,3.3h18.85c1.18,0,2.28-.47,3.06-1.33s1.18-2.04,1.1-3.22c-2.91-34.63-25.91-50.72-72.4-50.72-41.38,0-66.04,17.43-66.04,46.72,0,31.72,24.58,40.52,64.23,44.44,47.51,4.63,51.2,11.62,51.2,20.97,0,16.18-13.03,23.09-43.58,23.09-38.4,0-46.8-9.66-49.63-28.74-.31-2.04-2.04-3.53-4.16-3.53h-18.77c-2.36,0-4.16,1.88-4.16,4.16,0,24.42,13.27,53.55,76.79,53.55,45.86-.08,72.24-18.22,72.24-49.78h0Z"/>
</svg>